<svg version="1.0" viewBox="0 0 520 520"><path d="M20.3 5.5c-2.9 1.8-4.9 4.1-6.7 7.7-5.2 10.4-2.7 17.2 10.2 28.1C37.1 52.6 59 68.6 74.5 78.4c59.2 37.6 94.1 54.8 137.3 67.6 20.2 6 32.5 8.2 76.7 14 40.6 5.3 75 13.9 103 26 21.5 9.2 36.6 19.2 49.8 33 7.6 7.8 10.3 11.6 14.5 19.7 9.1 17.8 13.2 36.5 13.2 61 0 35.9-11 66.6-30.2 83.8-7.6 6.9-28.7 16.5-36.1 16.5-1.2 0-1.2-1.2 0-8.3 1.8-10.1 1.2-34.9-1-45.2-7.7-34.3-27.1-62.6-56.3-82.1-11.3-7.5-19.2-11-47.9-20.9-13.8-4.7-29.1-10-34.2-11.8-6-2.1-9.5-2.8-10.1-2.2-.5.6-4.2 8.8-8.2 18.3-4.1 9.7-7.8 17.1-8.5 16.9-12.5-4.9-56.8-20-60.3-20.7-16.5-3.1-32.9 9.5-34.8 26.8-.7 5.7 2.4 14.7 6.7 19.7 3.8 4.3 7.4 5.9 38.4 17.2 14.3 5.3 26.4 9.9 26.9 10.3.6.6-25 62-25.9 62-.1 0-13.7-5.3-30.1-11.7-28.9-11.4-30.2-11.8-37.4-11.8-8.9.1-14.7 2.3-21.2 8.3-7 6.4-9.3 12.1-9.3 22.2 0 9.6 1.8 14.1 7.7 19.7 4.4 4.2 8.6 6.2 39.5 18.4 14.5 5.7 26.3 10.8 26.3 11.4 0 .5-3.8 9.8-8.5 20.5-4.6 10.7-8.1 19.7-7.7 20.1 1.5 1.4 69.1 28.8 77.1 31.3 14 4.4 26.3 5.9 44.5 5.4 23.1-.7 38-4.5 58.6-14.8 23.8-12 41.6-29.1 58.2-56.1 1.5-2.4 2.4-2.6 10.5-3.2 14.4-1.1 33.1-6.1 45.6-12.3 29.5-14.7 49.8-41.5 60.2-79.9 7.6-28.3 7.6-67 0-96.7-6.2-23.7-16.6-42.1-33.4-58.8-14.6-14.6-28.4-24.6-45.5-33.2-39.7-19.9-79.1-30.3-149.1-39.3-59.1-7.7-102.9-25.2-171.5-68.8-17.7-11.2-33.5-22.5-48.3-34.4-7-5.7-14.1-11-15.7-11.8-4.6-2.4-12.8-1.9-17.7 1zM317 269c29.9 11.8 53.9 37.5 64.4 69 5.4 16.2 7 34.4 4.6 50-1.6 9.8-15.4 46.2-20.6 54-30.9 46.8-88.6 66.6-140.8 48.4-8.6-3-53.8-21.4-54.9-22.4-.4-.4 1.6-6.3 4.6-13.1 3-6.8 10.3-23.7 16.2-37.4 16.4-38.1 38.7-89.6 49.2-113.5 5.2-11.8 11.4-26.2 13.8-32 2.3-5.8 5.4-13.1 6.8-16.2l2.6-5.8 24.3 8.4c13.4 4.6 26.8 9.4 29.8 10.6zm-108.4 1.6c13.7 4.7 25.3 8.9 25.7 9.3.6.6-8.4 23.3-9.8 25-.9.9-49.5-16.9-58.8-21.5-7.7-3.9-9.2-6.3-8.4-13.3.6-5.1 3.6-8.6 9.2-10.5 4.9-1.7 7.9-.9 42.1 11zM133 375.9c6.3 2.1 16.2 5.7 22 7.9 19.7 7.5 29.4 11.3 29.8 11.7.6.6-11.2 27.5-12.1 27.5-1.6 0-49.4-19.3-57.5-23.2-5.8-2.8-8.7-4.9-9.7-6.9-2.7-5.1-1.5-12.1 2.8-16.8 4.9-5.2 9.8-5.3 24.7-.2z"/></svg>